<?xml version="1.0" standalone="no"?><!DOCTYPE svg PUBLIC "-//W3C//DTD SVG 1.1//EN" "http://www.w3.org/Graphics/SVG/1.1/DTD/svg11.dtd"><svg class="icon" width="32px" height="32.00px" viewBox="0 0 1024 1024" version="1.1" xmlns="http://www.w3.org/2000/svg"><path d="M754.56 744.064c41.216 0 74.688-33.408 74.688-74.624 0-27.52-24.96-64.832-74.688-112-49.792 47.168-74.688 84.48-74.688 112 0 41.216 33.472 74.624 74.688 74.624zM424.896 127.872a40 40 0 0 1 56.576 0l65.92 65.984 0.256 0.256 197.76 197.76a40 40 0 0 1 0 56.576L455.04 738.816a40 40 0 0 1-56.576 0l-211.2-211.2a40 40 0 0 1 0-56.576l262.144-262.08-24.512-24.512a40 40 0 0 1 0-56.576z m-126.912 345.6l-25.856 25.856 154.624 154.624 103.936-103.936L297.984 473.6z m63.36-63.36l232.704 76.544 66.56-66.56L505.92 265.6l-144.64 144.64zM98.56 856.064c0-22.08 17.92-40 40-40h746.688a40 40 0 1 1 0 80H138.56a40 40 0 0 1-40-40z" /></svg>