<?xml version="1.0" standalone="no"?><!DOCTYPE svg PUBLIC "-//W3C//DTD SVG 1.1//EN" "http://www.w3.org/Graphics/SVG/1.1/DTD/svg11.dtd"><svg t="1706323589113" class="icon" viewBox="0 0 1024 1024" version="1.1" xmlns="http://www.w3.org/2000/svg" p-id="6774" xmlns:xlink="http://www.w3.org/1999/xlink" width="32" height="32"><path d="M370.102857 72.484571c20.48-10.24 39.497143-10.678857 55.954286-4.388571 26.550857 9.947429 45.129143 35.986286 47.835428 82.212571l0.365715 11.995429v16.896a38.765714 38.765714 0 0 1-77.238857 6.290286l-0.438858-6.290286v-16.896l-0.219428-6.948571-0.658286-6.948572-4.827428 4.754286-4.754286 5.12-274.285714 312.027428a31.451429 31.451429 0 0 0-3.145143 33.353143l3.145143 4.681143 274.139428 312.027429 4.754286 5.12 4.900571 4.681143 0.438857-3.730286 0.365715-10.093714V593.188571c0-3.510857 0.512-6.948571 1.389714-10.24 1.536-6.070857 3.949714-14.848 11.337143-20.699428 9.069714-8.045714 15.36-10.24 28.086857-10.24h5.851429l25.526857 2.194286 46.957714 4.754285 42.276571 5.266286c66.852571 9.142857 117.028571 20.918857 166.107429 38.034286 44.763429 15.652571 88.868571 36.132571 144.091429 66.56l21.650285 12.068571-0.512-1.536a668.306286 668.306286 0 0 0-68.754285-133.558857l-13.531429-19.236571-14.189714-18.285715a457.435429 457.435429 0 0 0-157.622857-126.098285c-68.827429-32.914286-132.022857-43.373714-180.004572-42.496l-12.726857 0.512a39.058286 39.058286 0 0 1-43.008-34.962286 38.912 38.912 0 0 1 34.889143-42.422857c52.297143-5.632 139.190857 4.388571 231.131428 47.542857a531.894857 531.894857 0 0 1 186.075429 146.944c64.365714 78.774857 112.786286 179.565714 143.872 299.446857a39.204571 39.204571 0 0 1-37.449143 48.786286 40.521143 40.521143 0 0 1-20.260571-5.632l-55.442286-33.206857-32.109714-18.578286-28.745143-16.091429-25.965714-13.750857-23.771429-11.922286a815.542857 815.542857 0 0 0-11.190857-5.339428l-21.430857-9.508572a658.505143 658.505143 0 0 0-10.24-4.242285l-20.333715-7.826286a675.108571 675.108571 0 0 0-10.020571-3.657143c-53.467429-18.651429-109.421714-30.281143-191.561143-39.497143l-32.768-3.364571 0.146286 183.734857c0 16.822857-1.901714 31.744-5.851429 44.617143l-3.218285 9.362286c-8.704 21.211429-22.820571 34.230857-39.058286 40.228571a61.001143 61.001143 0 0 1-22.016 4.022857c-21.723429 0-44.617143-10.459429-67.803429-33.645714l-8.777143-9.362286L53.540571 559.762286a108.251429 108.251429 0 0 1-6.509714-132.461715l6.509714-8.192 274.139429-312.100571a142.628571 142.628571 0 0 1 42.422857-34.523429z m49.517714 12.653715c-11.922286-4.461714-25.6-4.169143-41.472 3.730285-9.508571 4.681143-19.309714 12.141714-29.257142 22.162286l-7.533715 8.045714L67.218286 431.177143a90.038857 90.038857 0 0 0-6.144 108.763428l6.144 7.826286 273.993143 312.027429c22.893714 26.038857 44.032 36.790857 62.829714 36.790857a42.861714 42.861714 0 0 0 15.579428-2.852572c11.702857-4.388571 21.942857-13.750857 28.525715-30.061714 4.096-9.947429 6.582857-22.016 7.460571-36.132571l0.292572-10.971429-0.073143-185.344-19.163429-1.609143a38.912 38.912 0 0 1-13.312-3.657143l-5.851428-3.291428-2.779429-2.413714v196.169142c0 8.923429-0.731429 16.310857-1.901714 22.308572l-1.462857 5.485714-1.682286 4.681143-11.995429 4.681143a67.803429 67.803429 0 0 1-19.602285-14.848l-5.851429-6.217143-274.066286-312.027429a49.517714 49.517714 0 0 1-4.388571-56.100571l4.388571-6.070857L372.297143 146.285714c7.899429-8.996571 14.994286-15.140571 21.065143-18.797714l4.315428-2.267429 12.068572 4.681143a70.436571 70.436571 0 0 1 4.754285 24.064l0.292572 8.411429v16.896a20.48 20.48 0 0 0 40.594286 4.754286l0.512-4.754286v-16.896c0-46.372571-14.921143-69.12-36.352-77.165714z m238.006858 241.737143c-88.576-41.691429-172.178286-51.2-221.549715-45.860572a20.699429 20.699429 0 0 0-18.505143 22.381714 20.845714 20.845714 0 0 0 23.405715 18.505143c52.370286-3.291429 123.684571 6.217143 202.020571 43.666286a475.721143 475.721143 0 0 1 163.913143 131.072c39.862857 49.225143 73.069714 108.105143 99.254857 175.981714l9.508572 25.819429 8.192 23.405714-21.430858-12.434286c-75.849143-44.251429-129.828571-70.802286-184.466285-89.965714-57.124571-19.968-116.077714-32.475429-202.898286-42.203428l-24.429714-2.56-22.528-2.194286 0.950857 1.389714 2.779428 5.997714 1.755429 6.436572 0.585143 6.802286-0.146286 21.284571 11.556572 1.243429c79.433143 7.899429 136.045714 17.700571 186.953142 32.621714l16.822858 5.12 14.994285 5.12 20.626286 7.533714 20.918857 8.484572c3.584 1.462857 7.168 3.072 10.752 4.681142l22.454857 10.386286 24.137143 12.068572 26.331429 13.970285 29.110857 16.237715 32.329143 18.724571 36.205714 21.577143 19.748571 11.922286c3.437714 1.974857 7.241143 3.072 10.898286 3.072 4.388571 0 8.557714-1.462857 12.141714-4.096a20.918857 20.918857 0 0 0 7.606858-21.796572c-30.500571-117.467429-77.750857-215.917714-140.361143-292.498286a513.609143 513.609143 0 0 0-179.638857-141.897142z m-217.234286 246.198857l-5.12-0.512-3.291429 0.146285-3.803428 1.097143-1.609143 1.170286a20.553143 20.553143 0 0 0-6.070857 8.777143l-1.170286 5.266286a20.699429 20.699429 0 0 0 18.870857 22.308571l17.627429 1.462857v-19.748571a20.845714 20.845714 0 0 0-11.337143-18.505143l-4.096-1.462857z m-36.352 332.580571c-17.481143 0-41.691429-8.118857-69.705143-39.862857L60.342857 553.691429a98.962286 98.962286 0 0 1 0-128.585143l274.139429-312.027429c13.165714-14.921143 26.477714-25.892571 39.643428-32.402286 21.211429-10.605714 38.180571-8.045714 48.713143-4.096 15.798857 5.924571 42.276571 25.014857 42.276572 85.723429v16.896a29.696 29.696 0 1 1-59.392 0v-16.896c0-16.530286-2.633143-25.014857-4.315429-28.818286-3.803429 1.682286-11.337143 6.436571-22.162286 18.797715l-274.285714 312.027428a40.082286 40.082286 0 0 0 0 50.029714l274.139429 312.027429c10.898286 12.361143 18.432 17.115429 22.235428 18.797714 1.682286-3.803429 4.242286-12.288 4.242286-28.818285V593.188571a29.696 29.696 0 1 1 59.465143 0v223.451429c0 19.968-2.779429 36.864-8.338286 50.468571-9.069714 21.942857-23.405714 31.305143-33.938286 35.181715a52.004571 52.004571 0 0 1-18.724571 3.437714z m553.837714-109.348571a31.232 31.232 0 0 1-15.506286-4.315429c-132.242286-80.457143-186.660571-105.910857-241.005714-124.854857-67.510857-23.625143-139.117714-36.352-263.899428-46.738286a29.842286 29.842286 0 0 1 4.900571-59.318857c130.267429 10.825143 205.824 24.283429 278.601143 49.737143 58.441143 20.48 114.614857 49.005714 186.075428 90.697143-27.209143-77.970286-63.122286-144.603429-107.227428-199.168a466.651429 466.651429 0 0 0-160.768-128.512c-105.325714-50.468571-197.266286-42.788571-198.217143-42.788572a29.769143 29.769143 0 0 1-5.632-59.172571c4.315429-0.438857 106.788571-9.508571 226.304 46.738286a522.752 522.752 0 0 1 182.857143 144.384c63.341714 77.531429 111.250286 177.078857 142.116571 295.936a29.988571 29.988571 0 0 1-28.598857 37.302857z" fill="#3F495A" p-id="6775"></path></svg>