<?xml version="1.0" standalone="no"?><!DOCTYPE svg PUBLIC "-//W3C//DTD SVG 1.1//EN" "http://www.w3.org/Graphics/SVG/1.1/DTD/svg11.dtd"><svg class="icon" width="32px" height="32.00px" viewBox="0 0 1024 1024" version="1.1" xmlns="http://www.w3.org/2000/svg"><path d="M0 577.163636v-13.963636-13.963636c0-9.309091 4.654545-18.618182 4.654545-32.581819 4.654545-18.618182 9.309091-41.890909 13.963637-60.50909 13.963636-27.927273 18.618182-46.545455 27.927273-65.163637 9.309091-18.618182 23.272727-37.236364 32.581818-55.854545l13.963636-13.963637c4.654545-4.654545 9.309091-9.309091 13.963636-9.309091 4.654545-4.654545 9.309091-9.309091 13.963637-9.30909 4.654545-4.654545 9.309091-4.654545 13.963636-9.309091h9.309091c4.654545 0 4.654545 0 9.309091-4.654546 4.654545 0 4.654545 0 9.309091-4.654545H209.454545c9.309091 4.654545 13.963636 9.309091 18.618182 13.963636 4.654545 4.654545 9.309091 9.309091 9.309091 13.963636-18.618182 4.654545-18.618182 9.309091-13.963636 13.963637 0 9.309091 4.654545 18.618182 9.309091 32.581818 4.654545 18.618182 9.309091 41.890909 13.963636 60.509091 4.654545 18.618182 9.309091 41.890909 9.309091 60.509091 4.654545 18.618182 9.309091 41.890909 13.963636 60.509091 4.654545 9.309091 4.654545 18.618182 9.309091 27.927272 4.654545 9.309091 4.654545 18.618182 9.309091 27.927273 0 4.654545 4.654545 9.309091 4.654546 9.309091 0 4.654545 4.654545 4.654545 4.654545 4.654546h4.654546c4.654545 0 13.963636-9.309091 18.618181-13.963637 4.654545-4.654545 13.963636-13.963636 18.618182-23.272727 13.963636-13.963636 23.272727-32.581818 32.581818-51.2 9.309091-18.618182 23.272727-37.236364 32.581819-55.854546 23.272727-9.309091 37.236364-27.927273 51.2-46.545454 4.654545-4.654545 9.309091-4.654545 9.30909-9.309091l13.963637-13.963636 4.654545-4.654546c4.654545 0 4.654545-4.654545 9.309091-4.654545 4.654545-4.654545 9.309091-9.309091 13.963637-9.309091 4.654545-4.654545 9.309091-4.654545 18.618181-9.309091 4.654545 0 13.963636-4.654545 18.618182-4.654546h32.581818c4.654545 0 9.309091 0 9.309091 4.654546 9.309091 4.654545 13.963636 4.654545 18.618182 9.309091 4.654545 4.654545 13.963636 9.309091 18.618182 13.963636 4.654545 4.654545 9.309091 13.963636 9.309091 18.618182 4.654545 4.654545 4.654545 13.963636 9.309091 18.618182 4.654545 13.963636 9.309091 23.272727 9.309091 37.236363 0 9.309091 4.654545 23.272727 4.654545 32.581819v167.563636c0 4.654545 0 9.309091 4.654546 9.309091 0 4.654545 0 4.654545 4.654545 4.654545s4.654545 0 9.309091-4.654545c4.654545 0 4.654545-4.654545 9.309091-4.654546 9.309091-4.654545 13.963636-9.309091 23.272727-13.963636l41.890909-41.890909c13.963636-13.963636 27.927273-27.927273 37.236364-46.545455 13.963636-13.963636 23.272727-32.581818 37.236363-46.545454 23.272727-32.581818 46.545455-65.163636 69.818182-102.4 9.309091-18.618182 23.272727-37.236364 32.581818-51.2l13.963637-27.927273 13.963636-27.927273c9.309091-18.618182 32.581818-23.272727 46.545455-13.963636 18.618182 9.309091 23.272727 32.581818 13.963636 46.545455l-13.963636 27.927272-13.963637 27.927273c-9.309091 18.618182-23.272727 37.236364-32.581818 55.854546-23.272727 37.236364-46.545455 69.818182-69.818182 107.054545-13.963636 18.618182-23.272727 32.581818-37.236363 51.2-13.963636 18.618182-27.927273 32.581818-41.890909 51.2l-46.545455 46.545455c-9.309091 9.309091-18.618182 13.963636-27.927273 18.618181-4.654545 4.654545-9.309091 4.654545-18.618181 9.309091-4.654545 4.654545-13.963636 4.654545-18.618182 4.654546h-4.654546-4.654545-4.654546H651.636364 637.672727c-4.654545 0-4.654545 0-9.309091-4.654546-4.654545 0-4.654545-4.654545-4.654545-4.654545l-4.654546-4.654546-4.654545-4.654545-4.654545-4.654546c-4.654545-9.309091-4.654545-18.618182-9.309091-23.272727 0-9.309091-4.654545-13.963636-4.654546-18.618182v-18.618181-32.581819c0-23.272727 0-41.890909 4.654546-65.163636v-60.509091-27.927273c0-9.309091 0-18.618182-4.654546-27.927272 0-4.654545-4.654545-9.309091-4.654545-9.309091 0-4.654545-4.654545-4.654545-4.654546-9.309091s-4.654545-4.654545-4.654545-4.654546l-4.654546-4.654545h-4.654545-4.654546-9.30909H544.581818c-4.654545 0-4.654545 4.654545-9.309091 4.654545s-9.309091 4.654545-9.309091 4.654546l-4.654545 4.654545-4.654546 4.654546-9.30909 9.309091-9.309091 9.309091c-13.963636 13.963636-23.272727 32.581818-37.236364 46.545454-13.963636 18.618182-23.272727 32.581818-32.581818 51.2-13.963636 18.618182-23.272727 37.236364-37.236364 51.2-4.654545 9.309091-13.963636 18.618182-23.272727 23.272727-4.654545 4.654545-9.309091 9.309091-13.963636 9.309091-13.963636 4.654545-18.618182 9.309091-27.927273 13.963637h-32.581818s-4.654545 0-4.654546-4.654546c0 0-4.654545 0-4.654545-4.654545-4.654545-4.654545-13.963636-9.309091-13.963637-13.963637-4.654545-4.654545-9.309091-9.309091-9.309091-13.963636-4.654545-9.309091-9.309091-23.272727-13.963636-32.581818-4.654545-9.309091-4.654545-23.272727-9.309091-32.581818-4.654545-23.272727-9.309091-41.890909-9.309091-65.163637-4.654545-18.618182-9.309091-37.236364-13.963636-60.509091 0-18.618182-4.654545-41.890909-9.309091-60.509091-4.654545-9.309091-4.654545-18.618182-9.309091-27.927272 0-4.654545-4.654545-9.309091-4.654545-13.963637-4.654545 0-4.654545-4.654545-9.309091-9.309091 0-4.654545-4.654545-4.654545-4.654546-4.654545H162.909091h-4.654546s-4.654545 0-4.654545 4.654545h-9.309091c-4.654545 4.654545-9.309091 9.309091-13.963636 9.309091-4.654545 4.654545-9.309091 4.654545-13.963637 9.309091 0 4.654545-4.654545 4.654545-9.309091 9.309091l-9.30909 9.309091c-13.963636 13.963636-23.272727 32.581818-32.581819 51.2-9.309091 18.618182-18.618182 37.236364-23.272727 55.854546-4.654545 18.618182-13.963636 37.236364-18.618182 60.50909-4.654545 9.309091-4.654545 18.618182-4.654545 32.581819 0 4.654545 0 9.309091-4.654546 13.963636v13.963636c0 4.654545-4.654545 4.654545-9.309091 4.654546s-4.654545-4.654545-4.654545-4.654546z" fill="#666666" /></svg>