<?xml version="1.0" standalone="no"?><!DOCTYPE svg PUBLIC "-//W3C//DTD SVG 1.1//EN" "http://www.w3.org/Graphics/SVG/1.1/DTD/svg11.dtd"><svg class="icon" width="32px" height="32.00px" viewBox="0 0 1024 1024" version="1.1" xmlns="http://www.w3.org/2000/svg"><path d="M1024 325.818182c-4.654545-13.963636-13.963636-23.272727-23.272727-32.581818-13.963636-9.309091-27.927273-9.309091-41.890909-4.654546-13.963636 4.654545-23.272727 13.963636-32.581819 23.272727-4.654545 9.309091-9.309091 18.618182-13.963636 23.272728l-13.963636 23.272727c-9.309091 13.963636-18.618182 32.581818-32.581818 51.2-23.272727 32.581818-41.890909 65.163636-65.163637 93.090909-9.309091 13.963636-23.272727 27.927273-32.581818 46.545455-13.963636 13.963636-23.272727 27.927273-37.236364 41.890909l-37.236363 37.236363c-9.309091 4.654545-13.963636 9.309091-18.618182 13.963637v-4.654546-23.272727V558.545455v-60.509091c0-13.963636 0-23.272727-4.654546-32.581819 0-9.309091-4.654545-23.272727-9.30909-37.236363 0-4.654545-4.654545-13.963636-9.309091-18.618182-4.654545-9.309091-9.309091-13.963636-13.963637-23.272727-4.654545-9.309091-13.963636-13.963636-18.618182-18.618182-9.309091-4.654545-13.963636-9.309091-23.272727-13.963636-4.654545 0-9.309091-4.654545-13.963636-4.654546h-37.236364c-9.309091 0-18.618182 4.654545-23.272727 4.654546-9.309091 4.654545-13.963636 4.654545-18.618182 9.30909-4.654545 4.654545-13.963636 9.309091-18.618182 9.309091l-4.654545 4.654546-4.654546 4.654545-4.654545 4.654546c-9.309091 4.654545-13.963636 9.309091-13.963636 13.963636h-4.654546c-4.654545 4.654545-4.654545 9.309091-9.309091 13.963636-13.963636 13.963636-27.927273 32.581818-37.236363 51.2-9.309091 13.963636-13.963636 23.272727-23.272728 37.236364l-9.309091 13.963636c-9.309091 13.963636-18.618182 32.581818-32.581818 46.545455-4.654545 9.309091-9.309091 13.963636-13.963636 18.618182-4.654545 4.654545-4.654545 4.654545-9.309091 4.654545v-4.654545c-4.654545-4.654545-4.654545-13.963636-9.309091-18.618182-4.654545-9.309091-4.654545-13.963636-9.309091-27.927273l-13.963636-55.854545v-27.927273c0-9.309091-4.654545-18.618182-4.654546-32.581818-4.654545-18.618182-9.309091-37.236364-13.963636-60.509091l-13.963636-27.927273c0-4.654545-4.654545-9.309091-9.309091-18.618182 0-9.309091-4.654545-13.963636-9.309091-18.618181-9.309091-9.309091-18.618182-13.963636-27.927273-18.618182h-4.654545-37.236364c-4.654545 4.654545-4.654545 4.654545-9.309091 4.654545 0 0-4.654545 0-4.654545 4.654546l-9.309091 4.654545c-4.654545 0-13.963636 4.654545-18.618182 9.309091-4.654545 4.654545-9.309091 4.654545-13.963637 9.309091l-13.963636 13.963636c-4.654545 4.654545-9.309091 9.309091-9.309091 13.963637-13.963636 13.963636-27.927273 32.581818-37.236363 55.854545-9.309091 13.963636-13.963636 37.236364-23.272728 55.854546-4.654545 18.618182-9.309091 37.236364-13.963636 60.509091 0 9.309091-4.654545 18.618182-4.654546 32.581818v32.581818c0 13.963636 9.309091 27.927273 23.272728 27.927273 9.309091 0 13.963636 0 18.618182-4.654546 4.654545-4.654545 9.309091-9.309091 9.30909-18.618182v-13.963636-9.309091c0-9.309091 4.654545-18.618182 4.654546-27.927273l13.963636-55.854545c13.963636-23.272727 18.618182-37.236364 27.927273-51.2 9.309091-18.618182 18.618182-32.581818 27.927273-46.545455 4.654545 0 4.654545-4.654545 9.309091-4.654545 0-4.654545 4.654545-9.309091 9.309091-9.309091 4.654545-4.654545 4.654545-4.654545 9.30909-4.654545s4.654545-4.654545 9.309091-4.654546l4.654546-4.654545h9.309091s0 4.654545 4.654545 4.654545l4.654546 4.654546c0 9.309091 4.654545 18.618182 4.654545 23.272727 4.654545 18.618182 9.309091 37.236364 9.309091 55.854545l9.309091 60.509091c4.654545 18.618182 4.654545 37.236364 9.309091 60.509091 4.654545 9.309091 9.309091 18.618182 9.309091 27.927273 4.654545 13.963636 9.309091 23.272727 13.963636 32.581818 4.654545 4.654545 4.654545 9.309091 9.309091 18.618182 9.309091 9.309091 13.963636 18.618182 23.272727 23.272727 4.654545 0 4.654545 4.654545 9.309091 4.654546s4.654545 0 9.309091 4.654545c4.654545 0 13.963636 4.654545 18.618182 4.654545 9.309091 0 18.618182 0 27.927273-4.654545 9.309091-4.654545 13.963636-4.654545 23.272727-9.309091l13.963636-13.963636c9.309091-9.309091 18.618182-18.618182 23.272728-27.927273 13.963636-23.272727 27.927273-37.236364 37.236363-55.854545l9.309091-13.963637c9.309091-9.309091 13.963636-23.272727 23.272727-32.581818 9.309091-13.963636 18.618182-27.927273 32.581819-41.890909l9.30909-9.309091 9.309091-9.309091 9.309091-4.654545c4.654545 0 4.654545-4.654545 9.309091-4.654546 0 0 4.654545 0 9.309091-4.654545H567.854545s0 4.654545 4.654546 4.654545c0 4.654545 0 4.654545 4.654545 9.309091 0 4.654545 4.654545 13.963636 4.654546 18.618182v83.781818c0 18.618182 0 37.236364-4.654546 55.854546v32.581818c0 4.654545 0 13.963636 4.654546 18.618182 0 9.309091 4.654545 13.963636 4.654545 23.272727l13.963637 27.927273c0 4.654545 4.654545 4.654545 4.654545 4.654545l4.654546 4.654545c4.654545 0 4.654545 4.654545 9.30909 4.654546s4.654545 4.654545 9.309091 4.654545 4.654545 4.654545 9.309091 4.654546 4.654545 0 9.309091 4.654545h46.545455c9.309091 0 13.963636-4.654545 23.272727-9.309091 4.654545-4.654545 13.963636-4.654545 18.618182-9.309091 9.309091-4.654545 18.618182-13.963636 32.581818-18.618181 13.963636-13.963636 32.581818-27.927273 51.2-46.545455 13.963636-13.963636 27.927273-27.927273 41.890909-46.545454 13.963636-13.963636 23.272727-27.927273 37.236364-46.545455l69.818182-97.745455c-4.654545-9.309091 9.309091-27.927273 18.618181-46.545454l13.963637-27.927273 13.963636-27.927273c9.309091-9.309091 9.309091-23.272727 9.309091-37.236363zM460.8 409.6z m218.763636 330.472727z m4.654546-4.654545z" fill="#333333" /></svg>