<?xml version="1.0" standalone="no"?><!DOCTYPE svg PUBLIC "-//W3C//DTD SVG 1.1//EN" "http://www.w3.org/Graphics/SVG/1.1/DTD/svg11.dtd"><svg class="icon" width="32px" height="32.00px" viewBox="0 0 1024 1024" version="1.1" xmlns="http://www.w3.org/2000/svg"><path d="M1024 325.818182c-4.654545-9.309091-9.309091-18.618182-18.618182-27.927273-9.309091-4.654545-23.272727-9.309091-32.581818-4.654545-9.309091 4.654545-18.618182 9.309091-27.927273 18.618181-9.309091 13.963636-13.963636 18.618182-18.618182 27.927273-4.654545 9.309091-9.309091 18.618182-13.963636 23.272727-9.309091 13.963636-18.618182 32.581818-32.581818 51.2-23.272727 37.236364-41.890909 65.163636-65.163636 97.745455-9.309091 13.963636-23.272727 32.581818-37.236364 46.545455-13.963636 18.618182-23.272727 32.581818-37.236364 41.890909l-37.236363 37.236363c-9.309091 4.654545-13.963636 9.309091-18.618182 13.963637-4.654545 0-4.654545 4.654545-9.309091 4.654545s-4.654545 4.654545-9.309091 4.654546v-4.654546-9.309091-27.927273V558.545455v-65.163637c0-13.963636 0-23.272727-4.654545-32.581818 0-9.309091-4.654545-23.272727-9.309091-37.236364 0-4.654545-4.654545-13.963636-9.309091-18.618181-4.654545-9.309091-9.309091-13.963636-13.963637-18.618182-4.654545-4.654545-9.309091-13.963636-18.618181-18.618182-4.654545-4.654545-13.963636-9.309091-23.272728-9.309091-4.654545 0-9.309091 0-9.309091-4.654545h-32.581818c-9.309091 0-13.963636 4.654545-23.272727 4.654545-4.654545 4.654545-9.309091 9.309091-18.618182 13.963636-4.654545 4.654545-9.309091 4.654545-18.618182 9.309091l-4.654545 4.654546h-4.654546l-4.654545 4.654545c0 4.654545-4.654545 9.309091-9.309091 13.963637-4.654545 4.654545-9.309091 9.309091-9.309091 13.963636-13.963636 18.618182-27.927273 37.236364-37.236364 51.2-9.309091 13.963636-13.963636 23.272727-23.272727 37.236364-4.654545 4.654545-4.654545 9.309091-9.309091 13.963636-9.309091 13.963636-18.618182 32.581818-32.581818 46.545454-4.654545 9.309091-13.963636 13.963636-18.618182 18.618182-9.309091 9.309091-13.963636 9.309091-13.963636 9.309091l-4.654546-4.654545s-4.654545-4.654545-4.654545-9.309091c-4.654545-4.654545-4.654545-13.963636-9.309091-23.272727s-4.654545-18.618182-9.309091-27.927273c-4.654545-18.618182-9.309091-41.890909-13.963636-55.854546 0-9.309091-4.654545-18.618182-4.654546-27.927272 0-9.309091-4.654545-23.272727-4.654545-32.581819-9.309091-13.963636-13.963636-32.581818-18.618182-55.854545-4.654545-9.309091-4.654545-18.618182-9.309091-27.927273-4.654545-4.654545-4.654545-13.963636-9.309091-18.618182l-13.963636-13.963636c-4.654545-9.309091-9.309091-13.963636-18.618182-13.963636L190.836364 279.272727h-9.309091-9.309091-4.654546l-9.309091 4.654546c-4.654545 0-4.654545 0-9.30909 4.654545h-4.654546-9.309091c-4.654545 0-9.309091 4.654545-13.963636 9.309091-4.654545 9.309091-9.309091 9.309091-13.963637 13.963636L93.090909 325.818182c-4.654545 4.654545-9.309091 4.654545-9.309091 9.309091-13.963636 18.618182-27.927273 37.236364-37.236363 55.854545-9.309091 18.618182-13.963636 37.236364-23.272728 60.509091-4.654545 18.618182-9.309091 37.236364-13.963636 60.509091 0 9.309091-4.654545 18.618182-4.654546 32.581818v27.927273c0 9.309091 4.654545 13.963636 13.963637 18.618182 4.654545 0 9.309091 0 13.963636-4.654546 4.654545-4.654545 4.654545-4.654545 4.654546-9.309091v-13.963636-13.963636c0-9.309091 4.654545-18.618182 4.654545-27.927273 4.654545-18.618182 9.309091-37.236364 18.618182-55.854546 9.309091-18.618182 13.963636-37.236364 23.272727-51.2 9.309091-18.618182 18.618182-32.581818 32.581818-46.545454l9.309091-9.309091 9.309091-9.309091c0-4.654545 4.654545-9.309091 9.309091-9.309091s9.309091-4.654545 9.309091-4.654545l4.654545-4.654546h18.618182l4.654546 4.654546c4.654545-4.654545 4.654545-4.654545 4.654545 0s4.654545 4.654545 4.654546 9.309091c4.654545 9.309091 9.309091 18.618182 9.309091 27.927272 4.654545 18.618182 9.309091 37.236364 9.30909 55.854546 0 9.309091 4.654545 23.272727 4.654546 32.581818 0 9.309091 4.654545 18.618182 4.654545 27.927273 4.654545 18.618182 4.654545 41.890909 9.309091 60.509091 4.654545 13.963636 4.654545 23.272727 9.309091 32.581818 4.654545 13.963636 9.309091 23.272727 13.963637 32.581818 0 4.654545 4.654545 9.309091 9.30909 18.618182s9.309091 13.963636 18.618182 18.618182l4.654546 4.654545s4.654545 0 4.654545 4.654546c4.654545 0 9.309091 4.654545 13.963637 4.654545 9.309091 0 18.618182 0 27.927272-4.654545 4.654545-4.654545 13.963636-4.654545 18.618182-9.309091l13.963636-13.963637 23.272728-23.272727c13.963636-18.618182 27.927273-37.236364 37.236363-51.2 4.654545-4.654545 4.654545-9.309091 9.309091-13.963636 9.309091-13.963636 13.963636-23.272727 23.272728-32.581819 9.309091-13.963636 23.272727-27.927273 37.236363-46.545454l9.309091-9.309091 9.309091-9.309091 4.654545-4.654545h9.309091c4.654545 0 4.654545-4.654545 9.309091-4.654546s4.654545-4.654545 9.309091-4.654545h23.272727l4.654546 4.654545c0 4.654545 4.654545 4.654545 4.654545 4.654546 0 4.654545 4.654545 4.654545 4.654546 9.309091s4.654545 13.963636 4.654545 23.272727v88.436363c0 18.618182 0 37.236364-4.654545 55.854546v32.581818c0 4.654545 0 13.963636 4.654545 18.618182 0 9.309091 4.654545 13.963636 4.654546 18.618182 4.654545 9.309091 9.309091 18.618182 13.963636 23.272727l4.654546 4.654545 4.654545 4.654546 4.654545 4.654545 4.654546 4.654546c4.654545 0 4.654545 0 9.309091 4.654545h60.509091c9.309091 0 13.963636-4.654545 18.618182-9.309091 4.654545-4.654545 13.963636-4.654545 18.618181-9.309091 9.309091-4.654545 18.618182-13.963636 27.927273-18.618181 13.963636-13.963636 32.581818-27.927273 51.2-46.545455 13.963636-13.963636 27.927273-27.927273 41.890909-46.545454 13.963636-13.963636 23.272727-27.927273 37.236364-51.2 23.272727-32.581818 46.545455-65.163636 69.818182-102.4 9.309091-18.618182 23.272727-32.581818 32.581818-51.2l13.963636-27.927273 13.963637-27.927273c4.654545 0 4.654545-13.963636 4.654545-23.272727z" fill="#333333" /></svg>